<?xml version="1.0" encoding="UTF-8" standalone="no"?>
<svg
   xmlns:dc="http://purl.org/dc/elements/1.1/"
   xmlns:cc="http://creativecommons.org/ns#"
   xmlns:rdf="http://www.w3.org/1999/02/22-rdf-syntax-ns#"
   xmlns:svg="http://www.w3.org/2000/svg"
   xmlns="http://www.w3.org/2000/svg"
   xmlns:xlink="http://www.w3.org/1999/xlink"
   xmlns:sodipodi="http://sodipodi.sourceforge.net/DTD/sodipodi-0.dtd"
   xmlns:inkscape="http://www.inkscape.org/namespaces/inkscape"
   width="440"
   height="440"
   version="1.1"
   id="svg1187"
   sodipodi:docname="ucc-logo.svg"
   inkscape:version="0.92.4 5da689c313, 2019-01-14">
  <metadata
     id="metadata1191">
    <rdf:RDF>
      <cc:Work
         rdf:about="">
        <dc:format>image/svg+xml</dc:format>
        <dc:type
           rdf:resource="http://purl.org/dc/dcmitype/StillImage" />
      </cc:Work>
    </rdf:RDF>
  </metadata>
  <sodipodi:namedview
     pagecolor="#ffffff"
     bordercolor="#666666"
     borderopacity="1"
     objecttolerance="10"
     gridtolerance="10"
     guidetolerance="10"
     inkscape:pageopacity="0"
     inkscape:pageshadow="2"
     inkscape:window-width="2560"
     inkscape:window-height="1338"
     id="namedview1189"
     showgrid="false"
     inkscape:zoom="1.8352635"
     inkscape:cx="89.370882"
     inkscape:cy="277.02414"
     inkscape:window-x="0"
     inkscape:window-y="34"
     inkscape:window-maximized="1"
     inkscape:current-layer="svg1187" />
  <defs
     id="defs1183">
    <!-- The letter U. When rotated 90 degrees clockwise, it's a C.
             Fits inside a 100x100 box with 5 units margin. -->
    <g
       id="u"
       stroke="black"
       stroke-width="30">
      <!-- The left and right stem. -->
      <path
         d="M 20 5 l 0 50 M 80 5 l 0 50"
         id="path1168" />
      <!-- The curved base. -->
      <path
         d="M 20 50 a 10,10 0 0,0 60,0"
         fill="none"
         id="path1170" />
    </g>
    <!-- Two Us on top of each other; fits in 100x200. -->
    <g
       id="uu">
      <use
         xlink:href="#u"
         id="use1173" />
      <use
         xlink:href="#u"
         y="100"
         id="use1175" />
    </g>
    <!-- Four UUs, making the UCC logo (but inside a 300x300 square). -->
    <g
       id="squarelogo">
      <use
         id="uu1"
         xlink:href="#uu" />
      <use
         id="cc1"
         xlink:href="#uu1"
         transform="rotate(90 50 150) translate(-100 -100)" />
      <use
         id="uu2"
         xlink:href="#cc1"
         transform="rotate(90 50 150) translate(-100 -100)" />
      <use
         id="cc2"
         xlink:href="#uu2"
         transform="rotate(90 50 150) translate(-100 -100)" />
    </g>
  </defs>
  <g
     id="g1329"
     transform="rotate(-45,248.22672,561.49149)"
     style="fill:#000000;fill-opacity:0.90196078">
    <path
       inkscape:connector-curvature="0"
       id="rect1197"
       d="m 324.50995,154.98281 v 42.86328 c 0.12989,5.51495 0.6267,9.89831 1.1543,11.6543 6.78571,26.67099 27.37538,35.67087 44.11719,35.54297 16.74181,0.1279 37.33147,-8.87198 44.11718,-35.54297 0.5276,-1.75599 1.02441,-6.13935 1.1543,-11.6543 v -42.86328 h -30.14844 v 42.86328 c 0.44055,12.65722 -8.57957,16.94927 -15.12304,17.24219 -6.54347,-0.29292 -15.5636,-4.58497 -15.12305,-17.24219 v -42.86328 z"
       style="opacity:1;fill:#000000;fill-opacity:0.90196078;stroke:none;stroke-width:31.05907822;stroke-miterlimit:4;stroke-dasharray:none;stroke-opacity:1" />
    <path
       id="rect1197-7"
       d="m 514.76931,154.622 h -42.86328 c -5.51495,0.12989 -9.89831,0.6267 -11.6543,1.1543 -26.67099,6.78571 -35.67087,27.37538 -35.54297,44.11719 -0.1279,16.74181 8.87198,37.33147 35.54297,44.11718 1.75599,0.5276 6.13935,1.02441 11.6543,1.1543 h 42.86328 v -30.14844 h -42.86328 c -12.65722,0.44055 -16.94927,-8.57957 -17.24219,-15.12304 0.29292,-6.54347 4.58497,-15.5636 17.24219,-15.12305 h 42.86328 z"
       style="opacity:1;fill:#000000;fill-opacity:0.90196078;stroke:none;stroke-width:31.05907822;stroke-miterlimit:4;stroke-dasharray:none;stroke-opacity:1"
       inkscape:connector-curvature="0" />
    <path
       id="rect1197-7-0"
       d="m 614.72624,154.74227 h -42.86328 c -5.51495,0.12989 -9.89831,0.6267 -11.6543,1.1543 -26.67099,6.78571 -35.67087,27.37538 -35.54297,44.11719 -0.1279,16.74181 8.87198,37.33147 35.54297,44.11718 1.75599,0.5276 6.13935,1.02441 11.6543,1.1543 h 42.86328 V 215.1368 h -42.86328 c -12.65722,0.44055 -16.94927,-8.57957 -17.24219,-15.12304 0.29292,-6.54347 4.58497,-15.5636 17.24219,-15.12305 h 42.86328 z"
       style="opacity:1;fill:#000000;fill-opacity:0.90196078;stroke:none;stroke-width:31.05907822;stroke-miterlimit:4;stroke-dasharray:none;stroke-opacity:1"
       inkscape:connector-curvature="0" />
    <path
       id="rect1197-0"
       d="m 614.96678,445.13967 v -42.86328 c -0.12989,-5.51495 -0.6267,-9.89831 -1.1543,-11.6543 -6.78571,-26.67099 -27.37538,-35.67087 -44.11719,-35.54297 -16.74181,-0.1279 -37.33147,8.87198 -44.11718,35.54297 -0.5276,1.75599 -1.02441,6.13935 -1.1543,11.6543 v 42.86328 h 30.14844 v -42.86328 c -0.44055,-12.65722 8.57957,-16.94927 15.12304,-17.24219 6.54347,0.29292 15.5636,4.58497 15.12305,17.24219 v 42.86328 z"
       style="opacity:1;fill:#000000;fill-opacity:0.90196078;stroke:none;stroke-width:31.05907822;stroke-miterlimit:4;stroke-dasharray:none;stroke-opacity:1"
       inkscape:connector-curvature="0" />
    <path
       id="rect1197-7-8"
       d="m 424.70741,445.38021 h 42.86328 c 5.51495,-0.12989 9.89831,-0.6267 11.6543,-1.1543 26.67099,-6.78571 35.67087,-27.37538 35.54297,-44.11719 0.1279,-16.74181 -8.87198,-37.33147 -35.54297,-44.11718 -1.75599,-0.5276 -6.13935,-1.02441 -11.6543,-1.1543 h -42.86328 v 30.14844 h 42.86328 c 12.65722,-0.44055 16.94927,8.57957 17.24219,15.12304 -0.29292,6.54347 -4.58497,15.5636 -17.24219,15.12305 h -42.86328 z"
       style="opacity:1;fill:#000000;fill-opacity:0.90196078;stroke:none;stroke-width:31.05907822;stroke-miterlimit:4;stroke-dasharray:none;stroke-opacity:1"
       inkscape:connector-curvature="0" />
    <path
       id="rect1197-7-0-5"
       d="m 324.75049,445.38021 h 42.86328 c 5.51495,-0.12989 9.89831,-0.6267 11.6543,-1.1543 26.67099,-6.78571 35.67087,-27.37538 35.54297,-44.11719 0.1279,-16.74181 -8.87198,-37.33147 -35.54297,-44.11718 -1.75599,-0.5276 -6.13935,-1.02441 -11.6543,-1.1543 h -42.86328 v 30.14844 h 42.86328 c 12.65722,-0.44055 16.94927,8.57957 17.24219,15.12304 -0.29292,6.54347 -4.58497,15.5636 -17.24219,15.12305 h -42.86328 z"
       style="opacity:1;fill:#000000;fill-opacity:0.90196078;stroke:none;stroke-width:31.05907822;stroke-miterlimit:4;stroke-dasharray:none;stroke-opacity:1"
       inkscape:connector-curvature="0" />
    <path
       id="rect1197-0-3"
       d="m 324.50995,254.91003 v 42.86328 c 0.12989,5.51495 0.6267,9.89831 1.1543,11.6543 6.78571,26.67099 27.37538,35.67087 44.11719,35.54297 16.74181,0.1279 37.33147,-8.87198 44.11718,-35.54297 0.5276,-1.75599 1.02441,-6.13935 1.1543,-11.6543 v -42.86328 h -30.14844 v 42.86328 c 0.44055,12.65722 -8.57957,16.94927 -15.12304,17.24219 -6.54347,-0.29292 -15.5636,-4.58497 -15.12305,-17.24219 v -42.86328 z"
       style="opacity:1;fill:#000000;fill-opacity:0.90196078;stroke:none;stroke-width:31.05907822;stroke-miterlimit:4;stroke-dasharray:none;stroke-opacity:1"
       inkscape:connector-curvature="0" />
    <path
       id="rect1197-0-9"
       d="m 614.96678,345.21246 v -42.86328 c -0.12989,-5.51495 -0.6267,-9.89831 -1.1543,-11.6543 -6.78571,-26.67099 -27.37538,-35.67087 -44.11719,-35.54297 -16.74181,-0.1279 -37.33147,8.87198 -44.11718,35.54297 -0.5276,1.75599 -1.02441,6.13935 -1.1543,11.6543 v 42.86328 h 30.14844 v -42.86328 c -0.44055,-12.65722 8.57957,-16.94927 15.12304,-17.24219 6.54347,0.29292 15.5636,4.58497 15.12305,17.24219 v 42.86328 z"
       style="opacity:1;fill:#000000;fill-opacity:0.90196078;stroke:none;stroke-width:31.05907822;stroke-miterlimit:4;stroke-dasharray:none;stroke-opacity:1"
       inkscape:connector-curvature="0" />
  </g>
</svg>
